Coordinates
version=1
nRows=19
nColumns=36
inDegrees=yes

Units are S.I. units (second, meters, Newtons, ...)
If the header above contains a line with 'inDegrees', this indicates whether rotational values are in degrees (yes) or radians (no).

endheader
time	pelvis_tilt	pelvis_list	pelvis_rotation	pelvis_tx	pelvis_ty	pelvis_tz	hip_flexion_r	hip_adduction_r	hip_rotation_r	knee_angle_r	knee_angle_r_beta	ankle_angle_r	subtalar_angle_r	mtp_angle_r	hip_flexion_l	hip_adduction_l	hip_rotation_l	knee_angle_l	knee_angle_l_beta	ankle_angle_l	subtalar_angle_l	mtp_angle_l	lumbar_extension	lumbar_bending	lumbar_rotation	arm_flex_r	arm_add_r	arm_rot_r	elbow_flex_r	pro_sup_r	arm_flex_l	arm_add_l	arm_rot_l	elbow_flex_l	pro_sup_l
      9.10000000	     -9.52158411	      2.16830639	     18.22508801	      1.24278385	      0.85357517	      0.02960330	     57.94662690	     -7.73632337	      2.97268710	     40.91081136	      0.71402836	     12.62369656	      4.92735477	     -7.49999987	     35.01034943	      8.77058350	     -4.22032674	     49.25470671	      0.85965680	     31.20775066	    -11.64260305	     -7.49999987	    -20.01199904	    -11.34035413	      1.86480857	     37.67618982	      1.29732871	     59.95614646	    112.95187269	    100.81759648	     44.58712605	    -13.55942080	     53.93226455	    105.95571296	    100.32102326
      9.11666670	     -8.27346194	      3.17957846	     19.09325751	      1.23598911	      0.85097076	      0.03213295	     57.69837256	     -8.79401480	      3.45622146	     39.91816771	      0.69670346	     10.90906241	      4.77260417	     -7.49999987	     34.83148199	      9.65628554	     -4.50473785	     50.79539375	      0.88654687	     31.34276829	    -12.12090423	     -7.49999987	    -23.24597589	    -12.04745116	      0.67137311	     39.00495206	      0.78777168	     58.84043120	    112.62375660	    100.26348038	     46.86411447	    -13.82908475	     53.57691334	    103.05365504	     99.91638780
      9.13333330	     -7.34445009	      3.99838703	     19.89575784	      1.23405106	      0.84543731	      0.03189411	     57.74956880	     -9.70448488	      4.05326360	     39.35038744	      0.68679382	      9.67644486	      4.42846208	     -7.49999987	     34.98851991	     10.39280534	     -4.63238254	     52.44172276	      0.91528073	     31.34749418	    -12.60208377	     -7.49999987	    -25.63234563	    -12.51996898	     -0.16241450	     40.30990064	      0.79241633	     58.25962321	    112.18767127	     99.96624806	     48.42518972	    -13.78850639	     53.07829925	    100.33924702	     99.57206438
      9.15000000	     -6.48397509	      4.80818790	     20.59774484	      1.22779235	      0.84486025	      0.03505717	     57.73822344	    -10.58760662	      4.60963143	     38.90539514	      0.67902724	      8.57216687	      4.15904202	     -7.49999987	     35.18271232	     11.02976476	     -4.81023793	     53.98434410	      0.94220455	     31.48072619	    -12.83378676	     -7.49999987	    -28.15635939	    -13.09013662	     -0.43028113	     41.47156222	      0.12523541	     57.33873228	    111.73036786	     98.53982500	     50.19235436	    -13.78379108	     53.56439265	     98.06615607	     97.99334793
      9.16666670	     -5.94515831	      5.49280089	     21.25775283	      1.22133772	      0.83559438	      0.03112745	     58.25076086	    -11.50832412	      5.19865673	     38.77817291	      0.67680680	      7.45126445	      3.59347947	     -7.49999987	     35.93519300	     11.62272504	     -5.14831964	     55.76622989	      0.97330432	     31.60638345	    -13.03959166	     -7.49999987	    -30.07768704	    -13.31108776	     -1.37491564	     43.23954909	     -0.04416473	     57.57031995	    111.72547459	     98.18591524	     51.74564916	    -14.41297352	     53.54019047	     97.09525276	     97.41533447
      9.18333330	     -5.53295322	      6.13349681	     21.86699691	      1.22019534	      0.82918866	      0.03047460	     58.93424511	    -12.44189329	      5.68459916	     38.97777755	      0.68029055	      6.67560793	      3.16803454	     -7.49999987	     36.80915867	     12.19842978	     -5.48424259	     57.69609420	      1.00698681	     31.90729724	    -13.23145720	     -7.49999987	    -31.59202560	    -13.51380314	     -2.14153311	     44.45261770	     -0.21806311	     57.29285646	    112.57608632	     98.15496233	     52.74352703	    -15.00783532	     53.19438078	     97.00284614	     97.30680964
      9.20000000	     -5.10237668	      6.95389963	     22.44283974	      1.21394670	      0.82358149	      0.02736744	     59.47481617	    -13.40236295	      6.32889074	     39.16256972	      0.68351579	      5.55776132	      1.96609216	     -7.49999987	     37.51509489	     12.86428568	     -6.05036675	     59.45009995	      1.03759998	     32.18616067	    -13.25183684	     -7.49999987	    -33.47663628	    -13.81877476	     -3.29529912	     45.81541634	     -0.54189110	     58.33973771	    114.51468723	     98.12633171	     53.74610738	    -15.93281875	     53.86473589	     97.87692231	     97.11567889
      9.21666670	     -4.92120102	      7.64809364	     22.90965245	      1.20835473	      0.81728329	      0.02960729	     60.30356186	    -14.18700932	      6.97555377	     39.55247886	      0.69032098	      4.51155100	      1.12209260	     -7.49999987	     38.53507903	     13.40367784	     -6.67025311	     61.26772552	      1.06932354	     32.35299037	    -13.33124835	     -7.49999987	    -34.90344939	    -14.10263546	     -3.88627395	     46.78743313	     -0.75292309	     58.58460415	    114.08327264	     96.94092405	     54.76833024	    -16.48620454	     54.24405376	     98.41297708	     95.73154721
      9.23333330	     -4.73367397	      8.13776291	     23.24372375	      1.20755185	      0.80873777	      0.02946603	     61.02867389	    -14.66299064	      7.58173328	     40.03099454	      0.69867266	      3.67622680	      0.11721676	     -7.49999987	     39.49493197	     13.65877678	     -7.14489329	     63.10992103	      1.10147591	     32.67614339	    -13.35008517	     -7.49999987	    -36.10470221	    -14.15975459	     -4.75223856	     47.83801558	     -0.23242376	     59.70282267	    113.12861856	     94.60896565	     55.77998833	    -17.92291014	     55.11017219	     99.79166220	     93.04222989
      9.25000000	     -4.80794590	      8.63833874	     23.60739840	      1.20194922	      0.80482428	      0.02559132	     61.94926559	    -15.30225819	      8.18583991	     40.41381873	      0.70535420	      2.84993410	     -0.41815273	     -7.49999987	     40.56443037	     14.02091240	     -7.75230580	     64.75443471	      1.13017809	     32.91641099	    -13.16971258	     -7.49999987	    -37.15647085	    -14.32287340	     -5.56593697	     48.68962886	     -0.21540732	     60.69739312	    112.86587831	     95.00266467	     56.44773985	    -18.92907120	     56.07075353	    100.65457252	     93.15750212
      9.26666670	     -5.14032406	      8.98448164	     23.83935424	      1.20707212	      0.79844511	      0.02950215	     62.90173017	    -15.75880880	      8.73850133	     40.60477252	      0.70868697	      2.41909089	     -0.77500465	     -7.49999987	     41.54280156	     14.22080036	     -8.17819448	     66.18819757	      1.15520197	     33.29143622	    -12.81597286	     -7.49999987	    -37.79567099	    -14.80411595	     -6.20581388	     49.16054832	      0.41969023	     61.54175393	    113.09059484	     95.32419992	     56.65874297	    -20.04398082	     57.21778407	    102.59991999	     93.26766554
      9.28333330	     -5.72963440	      9.22642917	     24.13947286	      1.20214745	      0.79305704	      0.03357278	     64.11663636	    -16.12779076	      9.38478186	     41.00331026	      0.71564277	      1.90149393	     -1.13862860	     -7.49999987	     42.76475732	     14.26781662	     -8.70295343	     67.56764057	      1.17927780	     33.70568647	    -12.29731706	     -7.49999987	    -38.42883333	    -15.23818268	     -6.72156637	     49.87699440	      1.40583086	     62.75110484	    111.59372743	     95.62165758	     57.01724194	    -20.96174715	     58.30699354	    104.98404929	     93.33884262
      9.30000000	     -6.22158981	      9.46195044	     24.49216004	      1.19743687	      0.79236597	      0.02951333	     64.99254862	    -16.69259724	      9.79731904	     41.10714879	      0.71745509	      1.38234330	     -1.09158987	     -7.49999987	     43.59995085	     14.38822104	     -9.06558057	     68.49597417	      1.19548027	     33.98595565	    -11.64494811	     -7.49999987	    -39.54276653	    -15.37335174	     -7.56484097	     50.79139357	      2.01410142	     63.67757038	    109.70420957	     95.40494355	     57.56650044	    -21.36826077	     58.06993092	    106.40418539	     93.12201916
      9.31666670	     -6.77089729	      9.67283529	     24.77821590	      1.19798504	      0.78797646	      0.02888683	     65.80395533	    -17.25286211	     10.16783438	     41.06262430	      0.71667799	      0.98273873	     -0.90447074	     -7.49999987	     44.31981918	     14.51220301	     -9.37817879	     69.22500968	      1.20820434	     34.25436897	    -10.88179713	     -7.49999987	    -40.55124659	    -15.77375449	     -7.75572918	     51.68036777	      1.98198541	     64.13855272	    109.01689675	     94.92933567	     58.62875119	    -20.62558605	     58.42974499	    106.95462182	     92.69021250
      9.33333330	     -7.21691216	      9.86486456	     25.15587581	      1.19310509	      0.78670558	      0.02507164	     66.46521420	    -17.95710608	     10.40850007	     40.94783498	      0.71467454	      0.57080034	     -0.66225356	     -7.49999987	     44.94116684	     14.72671745	     -9.63943985	     69.81996798	      1.21858832	     34.38684887	    -10.25565823	     -7.49999987	    -41.65405904	    -15.86622083	     -8.19597840	     52.58377816	      1.88095949	     64.38493620	    108.64338384	     94.91799082	     59.55879005	    -19.85341106	     58.90312329	    107.57386615	     92.75737362
      9.35000000	     -7.79498922	     10.08682969	     25.53698732	      1.18851817	      0.78180373	      0.02885435	     67.44118818	    -18.63564311	     10.80641318	     41.07396423	      0.71687591	      0.30481153	     -0.37257738	     -7.49999987	     45.79232218	     14.86367845	    -10.20772460	     70.42047927	      1.22906922	     34.78538831	     -9.24489989	     -7.49999987	    -42.87866657	    -16.05665291	     -8.89747874	     54.12055925	      1.87664002	     65.26680593	    108.22049826	     94.63367156	     62.04352310	    -19.42135731	     61.44635231	    108.67089830	     92.87529003
      9.36666670	     -8.26586807	      9.93257283	     25.97396661	      1.18892559	      0.77776536	      0.02830773	     68.22974914	    -19.22693396	     10.74470897	     41.09254820	      0.71720026	      0.00607231	     -0.23570338	     -7.49999987	     46.67867356	     14.86412570	    -10.33363095	     71.05550966	      1.24015260	     35.03635688	     -8.88374151	     -7.49999987	    -43.80598854	    -15.82535769	     -9.01707502	     54.61987136	      1.77108043	     65.41732564	    107.01068939	     93.94980236	     62.82981707	    -18.44017758	     61.77262295	    108.79003228	     92.23716501
      9.38333330	     -9.24872925	      9.90492469	     26.45084428	      1.18441940	      0.77210476	      0.03188638	     69.77472753	    -19.76199640	     11.23328795	     41.63426361	      0.72665498	     -0.16933416	      0.03575304	     -7.49999987	     48.09275581	     14.90526565	    -10.90144700	     71.68025004	      1.25105637	     35.36690271	     -8.00400630	     -7.49999987	    -44.50833020	    -16.01622982	     -9.32218556	     56.38965633	      1.84357235	     66.87438189	    106.75297422	     93.70441796	     65.47534569	    -18.29105644	     64.54660759	    110.25392355	     92.26726703
      9.40000000	     -9.77716460	      9.39978869	     26.97582091	      1.17907057	      0.76777236	      0.04347666	     70.94909689	    -19.96478181	     11.34796066	     42.30208609	      0.73831068	     -0.72161063	      0.12366841	     -7.49999987	     49.51123314	     14.51453455	    -10.92799812	     72.59132483	      1.26695763	     35.30128961	     -7.95579090	     -7.49999987	    -45.42732095	    -15.75292709	     -9.39038635	     58.30792908	      2.44711381	     66.37850121	    106.20647023	     93.36373345	     67.48993994	    -17.51500085	     64.35346923	    110.19253765	     92.00206870
